<svg width="36" height="30" viewBox="0 0 36 30" fill="none" xmlns="http://www.w3.org/2000/svg">
<path fill-rule="evenodd" clip-rule="evenodd" d="M17.1604 0.469123C17.4905 0.156374 17.8816 0 18.3326 0H18.3337C18.7857 0 19.1768 0.156374 19.5059 0.469123C19.8349 0.781873 20 1.15239 20 1.57968V28.4203C20 28.8486 19.8349 29.2181 19.5048 29.5309C19.1747 29.8436 18.7847 30 18.3326 30C17.8806 30 17.4905 29.8436 17.1604 29.5309L8.48928 21.3157H1.66737C1.21636 21.3157 0.825274 21.1594 0.495165 20.8466C0.165054 20.5339 0 20.1633 0 19.7361V10.2639C0 9.83665 0.165054 9.46614 0.495165 9.15339C0.825274 8.84064 1.21531 8.68426 1.66737 8.68426H8.48928L17.1604 0.469123ZM35.6703 11.535L32.2053 15L35.6703 18.465C35.8901 18.6848 36 18.9526 36 19.2663C36 19.5801 35.8901 19.8478 35.6703 20.0677L34.0677 21.6703C33.8478 21.8901 33.5811 22 33.2663 22C32.9516 22 32.6848 21.8901 32.465 21.6703L29 18.2053L25.535 21.6703C25.3152 21.8901 25.0474 22 24.7337 22C24.4199 22 24.1522 21.8901 23.9323 21.6703L22.3297 20.0677C22.1099 19.8478 22 19.5801 22 19.2663C22 18.9526 22.1099 18.6848 22.3297 18.465L25.7947 15L22.3297 11.535C22.1099 11.3152 22 11.0474 22 10.7337C22 10.4199 22.1099 10.1522 22.3297 9.93234L23.9323 8.32972C24.1522 8.10991 24.4199 8 24.7337 8C25.0474 8 25.3152 8.10991 25.535 8.32972L29 11.7947L32.465 8.32972C32.6848 8.10991 32.9526 8 33.2663 8C33.5801 8 33.8478 8.10991 34.0677 8.32972L35.6703 9.93234C35.8901 10.1522 36 10.4199 36 10.7337C36 11.0474 35.8901 11.3152 35.6703 11.535Z" fill="#B3B3B3"/>
</svg>
